# xmcd
#
# Track frame offsets:
# 182
# 13390
# 26170
# 40292
# 51645
# 62590
# 73955
# 85057
# 96560
# 108112
# 118205
# 129900
# 140147
# 151365
# 164810
#
# Disc length: 2390 seconds
#
#
# Revision: 0
# Processed by: cddbd v1.5.1PL0 Copyright (c) Steve Scherf et al.
# Submitted via: FreeRIP 2.941 
#
DISCID=e609540f
DTITLE=Kenny Rogers - The Very Best
DYEAR=1991
DGENRE=Country
TTITLE0=Ruby Don't Take Your Love To Town
TTITLE1=Ruben James
TTITLE2=Sunshine
TTITLE3=If I Could Only Change Your Mind
TTITLE4=I passed You
TTITLE5=Only Me
TTITLE6=Look Around, I'll Be There
TTITLE7=Me and Bobby McGee
TTITLE8=Listen To The Music
TTITLE9=Once Again She's All Alone
TTITLE10=Girl Get Ahold Of Yourself
TTITLE11=Good Time Liberator
TTITLE12=Always Leaving, Always Gone
TTITLE13=Shine On A Ruby Mountain
TTITLE14=Rainbows On A Cloudy Day
EXTD=
EXTT0=
EXTT1=
EXTT2=
EXTT3=
EXTT4=
EXTT5=
EXTT6=
EXTT7=
EXTT8=
EXTT9=
EXTT10=
EXTT11=
EXTT12=
EXTT13=
EXTT14=
PLAYORDER=
